<svg width="11" height="12" viewBox="0 0 11 12" fill="none" xmlns="http://www.w3.org/2000/svg">
<path d="M9.55496 5.25H8.98166V3.5625C8.98166 1.59844 7.35254 0 5.35078 0C3.34901 0 1.71989 1.59844 1.71989 3.5625V5.25H1.14659C0.513579 5.25 0 5.75391 0 6.375V10.875C0 11.4961 0.513579 12 1.14659 12H9.55496C10.188 12 10.7016 11.4961 10.7016 10.875V6.375C10.7016 5.75391 10.188 5.25 9.55496 5.25ZM6.30627 9.1875C6.30627 9.70547 5.87869 10.125 5.35078 10.125C4.82286 10.125 4.39528 9.70547 4.39528 9.1875V8.0625C4.39528 7.54453 4.82286 7.125 5.35078 7.125C5.87869 7.125 6.30627 7.54453 6.30627 8.0625V9.1875ZM7.07067 5.25H3.63088V3.5625C3.63088 2.63203 4.40245 1.875 5.35078 1.875C6.2991 1.875 7.07067 2.63203 7.07067 3.5625V5.25Z" fill="black"/>
</svg>
