<svg width="32" height="32" viewBox="0 0 32 32" fill="none" xmlns="http://www.w3.org/2000/svg">
<path d="M16 0C12.8355 0 9.74207 0.938383 7.11088 2.69649C4.4797 4.45459 2.42894 6.95345 1.21793 9.87706C0.0069325 12.8007 -0.309921 16.0177 0.307443 19.1214C0.924806 22.2251 2.44866 25.0761 4.6863 27.3137C6.92394 29.5513 9.77487 31.0752 12.8786 31.6926C15.9823 32.3099 19.1993 31.9931 22.1229 30.7821C25.0466 29.5711 27.5454 27.5203 29.3035 24.8891C31.0616 22.2579 32 19.1645 32 16C32 11.7565 30.3143 7.68687 27.3137 4.68629C24.3131 1.68571 20.2435 0 16 0ZM16 30C13.2311 30 10.5243 29.1789 8.22202 27.6406C5.91974 26.1022 4.12532 23.9157 3.06569 21.3576C2.00607 18.7994 1.72882 15.9845 2.26901 13.2687C2.80921 10.553 4.14258 8.05844 6.10051 6.1005C8.05845 4.14257 10.553 2.8092 13.2687 2.26901C15.9845 1.72881 18.7994 2.00606 21.3576 3.06569C23.9157 4.12531 26.1022 5.91973 27.6406 8.22202C29.1789 10.5243 30 13.2311 30 16C30 19.713 28.525 23.274 25.8995 25.8995C23.274 28.525 19.713 30 16 30Z" fill="#FF0000"/>
<path d="M23.1599 14.08C24.154 14.08 24.9599 13.2741 24.9599 12.28C24.9599 11.2859 24.154 10.48 23.1599 10.48C22.1657 10.48 21.3599 11.2859 21.3599 12.28C21.3599 13.2741 22.1657 14.08 23.1599 14.08Z" fill="#FF0000"/>
<path d="M9.40986 14.08C10.404 14.08 11.2099 13.2741 11.2099 12.28C11.2099 11.2859 10.404 10.48 9.40986 10.48C8.41575 10.48 7.60986 11.2859 7.60986 12.28C7.60986 13.2741 8.41575 14.08 9.40986 14.08Z" fill="#FF0000"/>
<path d="M16.1598 18C14.7252 18.0002 13.3115 18.3434 12.0364 19.001C10.7613 19.6585 9.66193 20.6113 8.82985 21.78C8.67602 21.9962 8.61436 22.2646 8.65843 22.5262C8.70251 22.7878 8.8487 23.0212 9.06485 23.175C9.281 23.3288 9.5494 23.3905 9.81102 23.3464C10.0726 23.3023 10.306 23.1562 10.4598 22.94C11.0992 22.0419 11.9417 21.3075 12.9187 20.7967C13.8956 20.2859 14.9794 20.013 16.0818 20.0003C17.1842 19.9877 18.274 20.2355 19.2624 20.7238C20.2508 21.212 21.11 21.9268 21.7698 22.81C21.929 23.0222 22.1659 23.1624 22.4284 23.1999C22.691 23.2375 22.9577 23.1691 23.1698 23.01C23.382 22.8509 23.5223 22.614 23.5598 22.3514C23.5973 22.0889 23.529 21.8222 23.3698 21.61C22.5316 20.489 21.4434 19.5791 20.1917 18.9524C18.9401 18.3257 17.5596 17.9996 16.1598 18Z" fill="#FF0000"/>
</svg>
