<svg width="42" height="42" viewBox="0 0 42 42" fill="none" xmlns="http://www.w3.org/2000/svg">
<path fill-rule="evenodd" clip-rule="evenodd" d="M21 0C32.5902 0 42 9.40981 42 21C42 32.5902 32.5902 42 21 42C9.40981 42 0 32.5902 0 21C0 9.40981 9.40981 0 21 0ZM14.4345 32.8019V16.4021H8.98234V32.8019H14.4345ZM34.0908 32.8019V23.3974C34.0908 18.3599 31.4012 16.0165 27.8147 16.0165C24.9227 16.0165 23.6272 17.607 22.9019 18.7241V16.4021H17.4512C17.5234 17.9408 17.4512 32.8019 17.4512 32.8019H22.9018V23.6431C22.9018 23.1529 22.9371 22.6629 23.0815 22.3125C23.4749 21.3335 24.3725 20.3192 25.8784 20.3192C27.8499 20.3192 28.6398 21.8237 28.6398 24.0274V32.8019H34.0908ZM11.7452 8.49434C9.87984 8.49434 8.66111 9.7207 8.66111 11.3281C8.66111 12.9016 9.84277 14.1618 11.673 14.1618H11.7082C13.6093 14.1618 14.7926 12.9016 14.7926 11.3281C14.7573 9.7207 13.6094 8.49434 11.7452 8.49434Z" fill="white"/>
</svg>
