<svg width="42" height="42" viewBox="0 0 42 42" fill="none" xmlns="http://www.w3.org/2000/svg">
<path fill-rule="evenodd" clip-rule="evenodd" d="M21 0C32.5902 0 42 9.40981 42 21C42 32.5902 32.5902 42 21 42C9.40981 42 0 32.5902 0 21C0 9.40981 9.40981 0 21 0ZM17.3011 32.1692C26.5939 32.1692 31.675 24.4689 31.675 17.7954C31.675 17.5754 31.675 17.3554 31.6645 17.1458C32.6493 16.4335 33.5084 15.543 34.1893 14.5267C33.2884 14.9248 32.314 15.1973 31.2873 15.3229C32.335 14.6943 33.1312 13.7096 33.5084 12.5258C32.534 13.1019 31.455 13.521 30.3025 13.7515C29.3806 12.7667 28.071 12.1591 26.6148 12.1591C23.828 12.1591 21.5651 14.422 21.5651 17.2088C21.5651 17.6069 21.607 17.9945 21.7013 18.3611C17.5002 18.1516 13.781 16.1401 11.2877 13.0809C10.8581 13.8248 10.6066 14.6943 10.6066 15.6163C10.6066 17.3659 11.4972 18.9164 12.8591 19.8174C12.0314 19.7964 11.2562 19.5659 10.5752 19.1888V19.2517C10.5752 21.7032 12.3143 23.7356 14.6296 24.2071C14.2106 24.3223 13.7601 24.3852 13.2992 24.3852C12.9743 24.3852 12.66 24.3538 12.3458 24.2908C12.9848 26.3023 14.8496 27.7586 17.0602 27.8005C15.3316 29.152 13.1525 29.9587 10.7847 29.9587C10.3761 29.9587 9.97803 29.9377 9.57994 29.8854C11.7905 31.3311 14.4515 32.1692 17.3011 32.1692Z" fill="white"/>
</svg>
