<svg width="42" height="42" viewBox="0 0 42 42" fill="none" xmlns="http://www.w3.org/2000/svg">
<path fill-rule="evenodd" clip-rule="evenodd" d="M20.9198 41.9999L20.9386 42H20.9321L20.9198 41.9999ZM21.0679 42H21.0614L21.0802 41.9999L21.0679 42ZM20.8556 41.9996L20.8759 41.9997H20.8642L20.8556 41.9996ZM21.1358 41.9997H21.1241L21.1444 41.9996L21.1358 41.9997ZM20.7938 41.9991L20.8073 41.9992L20.7965 41.9991H20.7938ZM21.2035 41.9991L21.1927 41.9992L21.2062 41.9991H21.2035ZM21.2713 41.9984L21.2665 41.9984L21.2848 41.9982L21.2713 41.9984ZM20.7152 41.9982L20.7335 41.9984L20.7287 41.9984L20.7152 41.9982ZM21.339 41.9974L21.3279 41.9975L21.3504 41.9972L21.339 41.9974ZM20.6496 41.9972L20.6721 41.9975L20.661 41.9974L20.6496 41.9972ZM21.4065 41.9962L21.3916 41.9965L21.4125 41.9961L21.4065 41.9962ZM20.5875 41.9961L20.6084 41.9965L20.5935 41.9962L20.5875 41.9961ZM20.5107 41.9945L20.5291 41.9949L20.5259 41.9948L20.5107 41.9945ZM21.4741 41.9948L21.4709 41.9949L21.4893 41.9945L21.4741 41.9948ZM20.4433 41.9928L20.4686 41.9934L20.4583 41.9932L20.4433 41.9928ZM21.5417 41.9932L21.5314 41.9934L21.5567 41.9928L21.5417 41.9932ZM21.6092 41.9914L21.5927 41.9919L21.6186 41.9911L21.6092 41.9914ZM20.3814 41.9911L20.4073 41.9919L20.3908 41.9914L20.3814 41.9911ZM20.3223 41.9893L20.3408 41.9899L20.3234 41.9893L20.3075 41.9888L20.3223 41.9893ZM21.6766 41.9893L21.6592 41.9899L21.6777 41.9893L21.6925 41.9888L21.6766 41.9893ZM21.7439 41.9871L21.7348 41.9875L21.7631 41.9865L21.7439 41.9871ZM20.2369 41.9865L20.2652 41.9875L20.2561 41.9871L20.2369 41.9865ZM20.1755 41.9842L20.2052 41.9852L20.1887 41.9847L20.1755 41.9842ZM21.8113 41.9847L21.7948 41.9852L21.8245 41.9842L21.8113 41.9847ZM20.1152 41.9817L20.1442 41.9829L20.1215 41.982L20.1152 41.9817ZM21.8785 41.982L21.8558 41.9829L21.8848 41.9817L21.8785 41.982ZM20.0307 41.978L20.0619 41.9794L20.0543 41.9792L20.0307 41.978ZM21.9457 41.9792L21.9381 41.9794L21.9693 41.978L21.9457 41.9792ZM19.9701 41.9752L20.0024 41.9767L19.9872 41.976L19.9701 41.9752ZM22.0128 41.976L21.9976 41.9767L22.0299 41.9752L22.0128 41.976ZM19.9104 41.9722L19.9429 41.9738L19.9201 41.9728L19.9104 41.9722ZM22.0799 41.9728L22.0571 41.9738L22.0896 41.9722L22.0799 41.9728ZM22.147 41.9692L22.1173 41.9708L22.1437 41.9694L22.1747 41.9677L22.147 41.9692ZM19.8563 41.9694L19.8827 41.9708L19.853 41.9692L19.8253 41.9677L19.8563 41.9694ZM22.214 41.9655L22.2009 41.9662L22.2342 41.9643L22.214 41.9655ZM19.7658 41.9643L19.7991 41.9662L19.786 41.9655L19.7658 41.9643ZM19.7066 41.9608L19.7398 41.9628L19.7191 41.9616L19.7066 41.9608ZM22.2809 41.9616L22.2602 41.9628L22.2934 41.9608L22.2809 41.9616ZM19.6501 41.9573L19.68 41.9592L19.6521 41.9574L19.6241 41.9556L19.6501 41.9573ZM22.3479 41.9574L22.32 41.9592L22.3499 41.9573L22.3759 41.9556L22.3479 41.9574ZM22.4146 41.9531L22.4046 41.9537L22.4364 41.9516L22.4146 41.9531ZM19.5636 41.9516L19.5954 41.9537L19.5854 41.9531L19.5636 41.9516ZM19.5045 41.9475L19.5357 41.9497L19.5186 41.9486L19.5045 41.9475ZM22.4814 41.9486L22.4643 41.9497L22.4955 41.9475L22.4814 41.9486ZM19.4455 41.9433L19.4741 41.9454L19.4519 41.9438L19.4455 41.9433ZM22.5481 41.9438L22.5259 41.9454L22.5545 41.9433L22.5481 41.9438ZM19.3662 41.9373L19.3913 41.9392L19.3852 41.9388L19.3662 41.9373ZM22.6148 41.9388L22.6087 41.9392L22.6338 41.9373L22.6148 41.9388ZM22.6813 41.9336L22.6693 41.9345L22.6948 41.9325L22.6813 41.9336ZM19.3052 41.9325L19.3307 41.9345L19.3187 41.9336L19.3052 41.9325ZM19.2457 41.9277L19.2673 41.9295L19.2521 41.9282L19.2457 41.9277ZM22.7479 41.9282L22.7327 41.9295L22.7543 41.9277L22.7479 41.9282ZM19.1802 41.9222L19.1867 41.9227L19.1856 41.9226L19.1802 41.9222ZM22.8144 41.9226L22.8133 41.9227L22.8198 41.9222L22.8144 41.9226ZM22.8808 41.9168L22.8749 41.9173L22.8898 41.916L22.8808 41.9168ZM19.1102 41.916L19.1251 41.9173L19.1192 41.9168L19.1102 41.916ZM19.0487 41.9104L19.0598 41.9115L19.0529 41.9108L19.0487 41.9104ZM22.9471 41.9108L22.9402 41.9115L22.9513 41.9104L22.9471 41.9108ZM17.7188 41.7447C7.68477 40.1676 0 31.4741 0 21C0 9.40982 9.40981 0 21 0C32.5902 0 42 9.40982 42 21C42 31.4741 34.3152 40.1676 24.2812 41.7447V27.0704H29.1744L30.1055 21H24.2812V17.0608C24.2812 15.4001 25.0948 13.7813 27.7035 13.7813H30.3516V8.6133C30.3516 8.6133 27.9484 8.20314 25.6508 8.20314C20.8539 8.20314 17.7188 11.1103 17.7188 16.3735V21H12.3867V27.0704H17.7188V41.7447Z" fill="white"/>
</svg>
