<svg width="75" height="24" viewBox="0 0 75 24" fill="none" xmlns="http://www.w3.org/2000/svg">
<path d="M15.4826 22.1139C15.0461 22.442 14.5609 22.7392 14.0254 23.0072C13.4915 23.2752 12.857 23.488 12.1268 23.6456C11.3949 23.8031 10.5332 23.8827 9.54174 23.8827C8.84396 23.8827 8.09587 23.8112 7.29911 23.6699C6.50234 23.5286 5.71368 23.2216 4.93477 22.7522C4.15423 22.2828 3.5457 21.6104 3.10918 20.7366C2.72783 19.9618 2.53635 18.7225 2.53635 17.0187V10.041H0V7.28955L8.10074 0H9.72024V5.537H15.1045V10.041H9.72186V14.5612C9.72186 15.3149 9.75919 15.9045 9.83708 16.33C9.91335 16.7556 10.1259 17.1113 10.4748 17.3955C10.8237 17.6798 11.3852 17.8211 12.1608 17.8211C13.2302 17.8211 14.337 17.428 15.4826 16.6419V22.1139Z" fill="white"/>
<path d="M35.3822 22.2113C34.6178 22.5394 33.9119 22.8155 33.2628 23.038C32.6137 23.2621 31.8154 23.4587 30.8661 23.6276C29.9167 23.7965 28.8538 23.881 27.6741 23.881C25.8956 23.881 24.3459 23.587 23.0266 22.9958C21.7057 22.4062 20.6541 21.6444 19.8687 20.7105C19.0833 19.7765 18.504 18.7581 18.134 17.6553C17.7624 16.5524 17.5774 15.4658 17.5774 14.3955C17.5774 13.0084 17.8111 11.7496 18.2817 10.6191C18.7506 9.48866 19.4046 8.52062 20.2452 7.71175C21.0858 6.90451 22.0481 6.28406 23.1337 5.85201C24.2193 5.41996 25.3731 5.20557 26.595 5.20557C28.0571 5.20557 29.3796 5.50605 30.5642 6.10701C31.7472 6.70798 32.7127 7.47787 33.4608 8.41667C34.2073 9.35548 34.7233 10.3446 35.0073 11.3809C35.2686 12.4188 35.4 13.5541 35.4 14.7885C35.4 14.9639 35.3968 15.102 35.3919 15.206C35.3854 15.3099 35.3838 15.422 35.3838 15.5422H24.4838C24.5828 16.3722 24.8278 17.0381 25.2205 17.54C26.0059 18.5551 27.3155 19.0635 29.1492 19.0635C30.4149 19.0635 31.5411 18.9108 32.5294 18.6055C33.516 18.3001 34.4685 17.9347 35.3854 17.5075V22.2113H35.3822ZM28.8847 12.7111C28.8733 11.5433 28.6364 10.7491 28.1723 10.3284C27.7082 9.90771 27.2035 9.69819 26.6583 9.69819C25.8615 9.69819 25.3049 10.0019 24.9885 10.6078C24.672 11.2136 24.5033 11.9153 24.4806 12.7128H28.8847V12.7111Z" fill="white"/>
<path d="M51.4037 18.3294C51.4037 18.7988 51.3226 19.3234 51.1587 19.9016C50.9948 20.4798 50.6654 21.0792 50.1688 21.6948C49.6723 22.312 48.9226 22.8301 47.9181 23.2508C46.9136 23.6714 45.6381 23.881 44.0884 23.881C42.6474 23.881 41.4596 23.7575 40.52 23.5123C39.582 23.267 38.5727 22.8869 37.4919 22.3737V17.1485C38.3763 17.7934 39.2299 18.3342 40.0526 18.7695C40.877 19.2064 41.7192 19.4241 42.5809 19.4241C42.9849 19.4241 43.3354 19.3396 43.6357 19.1707C43.9359 19.0018 44.0852 18.7419 44.0852 18.3927C44.0852 17.9785 43.918 17.6391 43.5853 17.3776C43.2527 17.1161 42.3926 16.5914 41.0084 15.8053C40.3756 15.4561 39.8238 15.0955 39.3549 14.7236C38.8859 14.3532 38.4623 13.8384 38.0859 13.1838C37.7094 12.5292 37.5212 11.7252 37.5212 10.7751C37.5212 9.7258 37.8068 8.78212 38.3796 7.94077C38.9524 7.09942 39.7687 6.43349 40.8267 5.94297C41.8847 5.45083 43.1066 5.20557 44.4925 5.20557C45.703 5.20557 46.7886 5.36149 47.7493 5.67335C48.71 5.9852 49.669 6.38638 50.6297 6.8769V11.8081C49.8118 11.1746 49.0475 10.7328 48.3384 10.4811C47.6292 10.2293 47.0288 10.1042 46.5387 10.1042C45.9935 10.1042 45.5651 10.1676 45.2535 10.2927C44.942 10.4177 44.7862 10.6565 44.7862 11.0057C44.7862 11.2899 44.8495 11.519 44.9744 11.6944C45.0994 11.8698 45.2503 12.0111 45.4239 12.1199C45.5976 12.2287 45.9967 12.448 46.6183 12.7745C47.2398 13.1026 47.725 13.3641 48.0755 13.5606C48.7733 13.9537 49.3526 14.3467 49.8102 14.7398C50.2678 15.1329 50.6475 15.6266 50.9477 16.2227C51.2544 16.8204 51.4037 17.5221 51.4037 18.3294Z" fill="white"/>
<path d="M68.3596 22.1139C67.923 22.442 67.4378 22.7392 66.9023 23.0072C66.3685 23.2752 65.7356 23.488 65.0037 23.6456C64.2719 23.8031 63.4102 23.8827 62.4187 23.8827C61.7209 23.8827 60.9728 23.8112 60.1761 23.6699C59.3793 23.5286 58.5906 23.2216 57.8117 22.7522C57.0312 22.2828 56.4227 21.6104 55.9861 20.7366C55.6048 19.9618 55.4133 18.7225 55.4133 17.0187V10.041H52.877V7.28955L60.9777 0H62.5972V5.537H67.9815V10.041H62.5972V14.5612C62.5972 15.3149 62.6345 15.9045 62.7124 16.33C62.7887 16.7556 63.0013 17.1113 63.3501 17.3955C63.699 17.6798 64.2605 17.8211 65.0362 17.8211C66.1056 17.8211 67.2123 17.428 68.3579 16.6419V22.1139H68.3596Z" fill="white"/>
<path d="M72.6908 10.1904C73.9661 10.1904 74.9999 9.15564 74.9999 7.87915C74.9999 6.60267 73.9661 5.56787 72.6908 5.56787C71.4154 5.56787 70.3816 6.60267 70.3816 7.87915C70.3816 9.15564 71.4154 10.1904 72.6908 10.1904Z" fill="white"/>
</svg>
